<?xml version="1.0" encoding="UTF-8"?>
<!-- Generator: visioncortex VTracer 0.6.3 -->
<svg version="1.1" xmlns="http://www.w3.org/2000/svg" width="1280" height="1280">
<path d="M0 0 C422.4 0 844.8 0 1280 0 C1280 422.4 1280 844.8 1280 1280 C857.6 1280 435.2 1280 0 1280 C0 857.6 0 435.2 0 0 Z " fill="#FAFDFF" transform="translate(0,0)"/>
<path d="M0 0 C2.75 0.96 4.28 0.58 7.04 -0.29 C9.27 -1.47 9.27 -1.47 11.48 -2.97 C34.63 -17.23 62.5 -20.64 88.84 -14.82 C106.77 -10.46 124.56 -1.96 138.04 10.71 C139.3 11.85 139.3 11.85 140.57 13.01 C151.31 23.17 163.34 38.25 166.55 53.07 C167.13 55.6 167.68 57.51 169.04 59.71 C172.41 61.67 175.95 62.43 179.73 63.28 C181.83 63.83 183.92 64.39 186.01 64.97 C187.04 65.25 188.06 65.53 189.12 65.82 C221.68 75.75 246.66 104.16 263.04 132.71 C263.7 133.83 264.35 134.94 265.03 136.08 C284.45 169.96 291.22 213.83 281.01 251.69 C277.09 264.49 271.42 276.04 262.02 285.66 C260 287.66 260 287.66 258.46 289.95 C257.04 291.71 257.04 291.71 254.23 292.21 C250.12 291.57 248.19 290.44 245.04 287.71 C244.01 284.9 243.8 282.07 243.54 279.09 C242.08 267.19 239.4 255.2 232.48 245.21 C229.99 241.4 229.99 241.4 230.23 238.39 C230.98 235.96 230.98 235.96 231.97 233.48 C241.56 208.75 238.26 178.62 228.04 154.71 C218.85 134.29 203.22 119.54 182.79 110.9 C170.89 106.63 158.56 105.16 145.97 105.91 C142.5 106.05 140.26 105.83 137.15 104.23 C134.36 100.9 133.79 97.63 133.11 93.46 C129.17 73.25 119.89 51.6 103.04 38.71 C102.05 38.71 101.06 38.71 100.04 38.71 C98.39 42.34 96.74 45.97 95.04 49.71 C96.36 50.37 97.68 51.03 99.04 51.71 C105.98 58.02 113.21 67.52 113.92 77.09 C113.61 80.71 112.72 82.74 110.17 85.34 C106.43 87.98 103.07 88.66 98.53 88.36 C92.08 86.7 88.44 81.55 85.17 76.09 C81.61 70.36 76.43 68.17 70.2 66.1 C67.03 65.53 63.94 65.54 60.73 65.53 C59.46 65.51 58.18 65.5 56.87 65.48 C52.97 65.72 49.78 66.61 46.04 67.71 C42.69 68.05 42.69 68.05 39.42 68.09 C38.33 68.12 37.25 68.15 36.13 68.18 C32.37 67.61 30.74 66.34 28.04 63.71 C26.58 60.78 26.68 58.99 27.04 55.71 C29.71 49.35 33.81 45.52 40.04 42.71 C45.64 40.65 50.97 39.71 56.91 39.31 C63.24 38.96 63.24 38.96 68.11 35.37 C69.36 32.83 70.31 30.44 71.04 27.71 C54.13 26.92 39.88 28.82 24.73 36.65 C24.13 36.96 23.52 37.27 22.9 37.6 C17.66 40.52 14.26 44.17 11.67 49.59 C10.04 51.71 10.04 51.71 6.95 52.22 C1.62 51.53 -1 49.11 -5.02 45.71 C-12.34 39.84 -19.58 35.02 -27.96 30.71 C-29.1 30.11 -30.24 29.51 -31.42 28.89 C-57.93 15.4 -88.47 11.86 -116.96 20.71 C-151.28 32.22 -171.97 55.19 -188.11 86.67 C-189.15 88.81 -189.15 88.81 -188.96 91.71 C-181.39 91.22 -172.65 90.43 -167.05 84.8 C-165.92 83.29 -164.81 81.75 -163.72 80.2 C-149.44 60.14 -122.97 48.25 -99.96 41.71 C-98.9 41.4 -97.85 41.08 -96.76 40.75 C-89.09 38.74 -81.61 38.38 -73.71 38.28 C-72.7 38.26 -71.69 38.23 -70.66 38.21 C-63.13 38.23 -55.76 39.33 -49.95 44.5 C-46.65 48.12 -45.49 51.48 -45.14 56.34 C-45.31 59.48 -45.56 61.17 -47.43 63.71 C-51.52 67.33 -55.03 68.81 -60.5 68.93 C-76.59 69.39 -91.26 70.52 -105.96 77.71 C-106.54 77.99 -107.13 78.26 -107.73 78.55 C-123.26 85.86 -135.85 96.8 -143.64 112.28 C-144.02 113.01 -144.4 113.74 -144.79 114.49 C-147.13 119.02 -147.13 119.02 -148.95 123.79 C-152.05 128.31 -155.99 128.56 -161.17 129.64 C-162.18 129.87 -163.19 130.1 -164.22 130.34 C-167.44 131.07 -170.67 131.77 -173.89 132.46 C-177.12 133.18 -180.34 133.91 -183.55 134.64 C-185.56 135.09 -187.56 135.53 -189.57 135.97 C-190.48 136.17 -191.39 136.37 -192.33 136.57 C-193.13 136.75 -193.93 136.92 -194.75 137.1 C-197.03 137.73 -198.92 138.51 -200.96 139.71 C-201.75 141.52 -201.75 141.52 -201.93 143.64 C-202.05 144.43 -202.16 145.22 -202.27 146.04 C-202.43 147.3 -202.43 147.3 -202.58 148.59 C-202.82 150.32 -203.07 152.04 -203.31 153.77 C-203.53 155.42 -203.74 157.07 -203.96 158.71 C-204.28 161.05 -204.61 163.38 -204.96 165.71 C-205.14 167.08 -205.14 167.08 -205.33 168.46 C-206.07 171.13 -206.86 171.95 -208.96 173.71 C-210.97 174.56 -210.97 174.56 -213.28 175.22 C-214.14 175.48 -214.99 175.74 -215.88 176.01 C-216.79 176.28 -217.7 176.56 -218.64 176.84 C-242.95 184.57 -262.73 199.14 -274.97 221.75 C-282.58 236.89 -284.47 253.28 -279.2 269.44 C-272.95 285.91 -260.02 298.27 -244.07 305.58 C-240.42 307.12 -236.72 308.47 -232.96 309.71 C-233.29 309.05 -233.62 308.39 -233.96 307.71 C-234.92 294.61 -234.55 281.38 -230.96 268.71 C-230.68 267.71 -230.68 267.71 -230.4 266.68 C-224.26 244.59 -212.68 225.28 -196.96 208.71 C-196.06 207.76 -195.17 206.8 -194.25 205.81 C-182.56 193.53 -168.97 184.46 -153.96 176.71 C-153.34 176.4 -152.72 176.08 -152.08 175.75 C-115.55 157.17 -71.48 152.62 -32.29 164.99 C0.32 175.97 23.05 196.58 40.46 225.75 C40.82 226.36 41.19 226.97 41.57 227.6 C42.54 229.22 43.48 230.86 44.42 232.5 C45.22 233.6 45.22 233.6 46.04 234.71 C50.26 234.71 52.26 232.31 55.36 229.71 C62.19 224.18 69.2 219.74 77.04 215.71 C77.64 215.41 78.24 215.1 78.86 214.78 C107.32 200.3 138.73 196.16 169.4 206.07 C194.61 214.78 214.1 231.36 225.92 255.51 C236.35 278.1 238.13 307.01 230.04 330.71 C227.97 335.79 225.18 340.22 222.04 344.71 C221.67 345.26 221.29 345.8 220.91 346.36 C205.52 368.37 184.07 385.26 157.23 390.36 C127.64 395.13 99.91 386.77 75.86 369.4 C69.22 364.25 63.12 358.51 57.04 352.71 C57.04 369.66 84.48 394.33 95.42 405.4 C102.53 412.47 109.87 418.9 118.04 424.71 C118.74 425.21 119.43 425.7 120.14 426.21 C136.55 437.78 152.98 445.5 172.04 451.71 C172.42 453.71 172.76 455.71 173.04 457.71 C171.39 459.37 169.5 458.91 167.22 458.93 C160.96 458.87 155.23 457.73 149.17 456.21 C148.09 455.95 147 455.68 145.89 455.41 C135.26 452.68 125.11 449.07 115.04 444.71 C114.34 444.41 113.65 444.11 112.93 443.8 C96.32 436.47 80.57 425.77 67.04 413.71 C66.3 413.06 66.3 413.06 65.55 412.4 C59.29 406.88 53.22 401.28 48.04 394.71 C47.24 393.7 46.43 392.68 45.6 391.62 C38.23 382.06 32.33 371.81 26.49 361.27 C24.09 357.03 21.57 352.87 19.04 348.71 C15.55 352.16 12.21 355.7 8.92 359.34 C-10.46 380.55 -31.86 399.16 -61.73 400.94 C-65.85 401.05 -69.96 401.1 -74.08 401.09 C-74.81 401.09 -75.54 401.09 -76.28 401.09 C-87.61 401.06 -98.14 400.24 -108.96 396.71 C-110.12 396.34 -111.29 395.97 -112.5 395.58 C-134.36 387.85 -152.72 372.48 -162.96 351.71 C-174.31 327.92 -174.98 301.42 -166.71 276.59 C-156.75 250.31 -138.43 231.9 -113.18 220.14 C-92.24 210.89 -68.34 208.22 -45.96 213.71 C-45.96 213.05 -45.96 212.39 -45.96 211.71 C-48.95 211.01 -51.95 210.35 -54.96 209.71 C-56.76 209.32 -56.76 209.32 -58.6 208.91 C-89.06 202.61 -118.24 209.02 -144.24 225.84 C-167.66 242.62 -182.46 267.11 -188.21 295.28 C-190.66 312.03 -189.24 328.89 -183.54 344.83 C-182.58 347.94 -182.52 350.5 -182.96 353.71 C-184.75 356.47 -186.01 358.24 -188.96 359.71 C-193.62 359.94 -198.29 359.81 -202.96 359.71 C-204.18 359.7 -205.41 359.68 -206.67 359.66 C-243.13 358.35 -277.39 341.45 -302.36 315.24 C-321.99 293.95 -330.21 266.83 -329.39 238.31 C-328.29 217 -318.76 195.85 -304.96 179.71 C-304.35 178.95 -303.74 178.18 -303.11 177.38 C-289.81 161.26 -266.74 146.19 -245.96 142.71 C-245.99 142.09 -246.03 141.47 -246.06 140.83 C-247.3 98.63 -228.39 54.26 -200.39 23.34 C-173.59 -4.95 -136.87 -22.41 -97.71 -24.25 C-63.39 -24.54 -29.97 -17.08 0 0 Z " fill="#00DEB5" transform="translate(654.95703125,430.28515625)"/>
<path d="M0 0 C11.82 9.76 21.07 24.7 22.81 40.08 C22.97 43.05 23.01 45.99 23 48.96 C22.99 50.01 22.98 51.06 22.98 52.15 C22.62 68 16.7 80.85 5.93 92.46 C-2.62 100.63 -12.86 106.05 -24.5 108.27 C-25.66 108.5 -26.81 108.73 -28 108.96 C-45.95 110.56 -61.92 106.34 -76.19 95.02 C-77.98 93.46 -79.75 91.88 -81.5 90.27 C-82.42 89.44 -83.33 88.61 -84.28 87.75 C-95.34 77.2 -103.37 64.72 -110.5 51.27 C-111.33 49.71 -111.33 49.71 -112.18 48.12 C-115.69 41.07 -115.69 41.07 -114.93 37.82 C-113.15 34.65 -111.01 32.29 -108.5 29.65 C-107.5 28.59 -106.5 27.52 -105.5 26.46 C-104.99 25.93 -104.49 25.4 -103.97 24.85 C-101.79 22.51 -99.72 20.07 -97.63 17.65 C-71.89 -10.66 -33.05 -22.79 0 0 Z " fill="#FAFDFF" transform="translate(830.50390625,677.7265625)"/>
<path d="M0 0 C3.09 2.36 5.83 4.93 8.56 7.69 C9.32 8.44 10.07 9.2 10.84 9.97 C20.06 19.62 27.15 30.84 34.19 42.12 C35.3 43.89 36.44 45.64 37.62 47.37 C40.31 51.35 41.95 54.04 41 59 C30.14 80.3 6.64 100.41 -16 108 C-31.65 112.41 -49.61 111.77 -64.02 103.89 C-80.27 94.33 -90.85 81.71 -95.75 63.14 C-99.18 46.15 -95.31 30.49 -86 16 C-76.87 2.4 -62.27 -7.06 -46.25 -10.52 C-29.29 -13.01 -14.5 -9.12 0 0 Z " fill="#FAFDFF" transform="translate(618,686)"/>
<path d="M0 0 C11.32 6.6 15.28 22.42 19.66 33.93 C21.93 39.88 24.36 45.76 26.88 51.62 C27.24 52.5 27.61 53.37 27.99 54.26 C31.07 61.4 33.39 65.97 40.06 70.38 C40.64 70.77 41.22 71.16 41.82 71.56 C44.41 73.3 47.01 75.01 49.62 76.71 C60.98 84.35 72.99 94.68 80.19 106.44 C82.37 109.52 83.33 110.16 87 111 C89.81 110.19 92.27 109.33 94.94 108.19 C99.64 106.23 103.89 104.62 109 104 C106.22 98.61 103.2 95 98.75 90.94 C91.36 83.83 83.78 75.19 83.25 64.44 C83.63 60.27 84.81 57.83 88 55 C92.6 52.29 96.79 52.22 102 53 C111.71 56.17 118.43 62.42 125 70 C125.46 70.53 125.92 71.05 126.39 71.59 C134.15 80.68 140.28 90.53 146 101 C146.4 101.72 146.8 102.44 147.21 103.19 C148.37 105.3 149.5 107.43 150.62 109.56 C151.14 110.51 151.14 110.51 151.66 111.47 C154.1 116.27 154.4 119.76 154 125 C152.15 126.85 149.46 126.32 146.97 126.49 C125.04 128.14 91.01 134.7 74.87 151.17 C73 153 73 153 69.56 153.5 C66 152 66 152 64.75 149.67 C63.96 147.58 63.19 145.48 62.42 143.39 C51.38 117.02 18.94 99.13 -5.98 88.62 C-12.88 85.8 -19.72 84.04 -27 82.5 C-45.71 78.54 -45.71 78.54 -51 72 C-52.25 69.12 -52.25 69.12 -52 66 C-48.83 58.89 -44.1 54.63 -36.93 51.64 C-26.15 48.06 -13.43 51.89 -3 55 C-3.44 53.96 -3.87 52.91 -4.32 51.84 C-7.87 43.15 -10.95 34.41 -13.5 25.38 C-13.9 24.01 -13.9 24.01 -14.31 22.61 C-15.85 16.97 -16.25 12.74 -15 7 C-11.12 0.85 -7.23 -0.87 0 0 Z " fill="#00DEB5" transform="translate(642,490)"/>
<path d="M0 0 C12.15 4.69 21.51 11.07 30.57 20.38 C31.24 21.05 31.9 21.71 32.59 22.4 C47.81 38.65 55.43 60.26 54.79 82.25 C54.25 94.23 54.25 94.23 49.82 98.44 C46.19 100.61 44.7 101.15 40.57 100.38 C36.92 98.34 34.9 96.87 32.57 93.38 C32.41 90.86 32.41 90.86 32.52 87.86 C32.55 86.76 32.57 85.66 32.6 84.53 C32.63 83.37 32.67 82.2 32.7 81 C32.93 62.25 27.99 48.49 14.82 34.63 C14.08 33.89 13.34 33.14 12.57 32.38 C11.93 31.72 11.28 31.06 10.61 30.38 C2.57 22.75 -8.01 18.68 -18.99 18 C-24.03 17.62 -26.62 16.69 -30.43 13.38 C-32.43 10.38 -32.43 10.38 -32.36 7 C-31.26 2.74 -29.77 1.15 -26.43 -1.62 C-18.89 -5.39 -7.58 -2.44 0 0 Z " fill="#00DEB5" transform="translate(826.42578125,548.62109375)"/>
</svg>
