<?xml version="1.0" encoding="UTF-8"?>
<!-- Generator: visioncortex VTracer 0.6.3 -->
<svg version="1.1" xmlns="http://www.w3.org/2000/svg" width="1280" height="453">
<path d="M0 0 C422.4 0 844.8 0 1280 0 C1280 149.49 1280 298.98 1280 453 C857.6 453 435.2 453 0 453 C0 303.51 0 154.02 0 0 Z " fill="#F9FCFE" transform="translate(0,0)"/>
<path d="M0 0 C2.9 1.29 4.34 1.58 7.48 1.1 C10.03 -0.1 12.46 -1.35 14.92 -2.71 C30.96 -11.12 47.16 -11.73 64.48 -6.9 C67.91 -5.75 71.19 -4.4 74.48 -2.9 C75.12 -2.64 75.76 -2.38 76.41 -2.11 C92.92 5.2 102.32 18.46 109.48 34.52 C110.48 37.1 110.48 37.1 110.48 39.1 C111.14 39.1 111.8 39.1 112.48 39.1 C112.48 39.76 112.48 40.42 112.48 41.1 C113.55 41.16 114.63 41.23 115.73 41.29 C134.41 43.69 151.26 57.77 162.48 72.1 C179.78 96 189.24 123.43 185.79 153.1 C183.72 165.92 177.84 180.54 167.48 189.1 C165.48 188.85 165.48 188.85 163.48 188.1 C162.49 187.77 161.5 187.44 160.48 187.1 C160.24 185.58 160.24 185.58 160 184.02 C158.1 170.02 158.1 170.02 151.48 158.1 C151.85 153.94 152.47 150.04 153.5 146 C157.81 126.84 153.77 107.54 143.48 91.1 C136.03 80.64 126.92 73.99 114.48 71.1 C110.68 70.57 106.87 70.29 103.04 70.04 C101.11 69.91 99.17 69.77 97.23 69.63 C96.39 69.57 95.55 69.52 94.68 69.46 C92.48 69.1 92.48 69.1 89.48 67.1 C88.78 64.67 88.23 62.33 87.73 59.85 C84.87 47.33 79.53 35.56 69.48 27.1 C68.49 27.1 67.5 27.1 66.48 27.1 C65.82 28.75 65.16 30.4 64.48 32.1 C64.94 32.59 65.4 33.07 65.87 33.57 C70.63 38.77 74.57 43.77 76.04 50.79 C75.17 54.36 73.33 55.88 70.48 58.1 C66.97 58.91 65.61 58.17 62.42 56.48 C59.3 53.95 57.67 51.43 55.48 48.1 C50.85 44.83 47.16 43.96 41.54 43.98 C40.5 43.97 39.46 43.97 38.39 43.97 C35.88 44.08 33.88 44.43 31.48 45.1 C28.04 45.48 28.04 45.48 24.48 45.1 C21.54 42.6 21.54 42.6 19.48 40.1 C20.48 35.79 21.87 32.94 25.44 30.2 C31.48 26.95 38.79 26.18 45.48 25.1 C45.86 23.45 46.19 21.78 46.48 20.1 C45.42 18.81 45.42 18.81 42.96 19.08 C31.53 19.8 19.18 22.17 10.88 30.75 C9.7 32.16 8.58 33.63 7.48 35.1 C3.51 33.81 0.7 31.86 -2.53 29.32 C-18.36 16.87 -39.31 10.11 -59.52 12.1 C-76.07 14.38 -90.91 20.93 -102.52 33.1 C-103.14 33.71 -103.76 34.33 -104.4 34.96 C-108.23 38.98 -111.1 43.45 -113.89 48.23 C-114.24 48.81 -114.59 49.4 -114.94 50 C-117.02 53.69 -118.07 56.9 -118.52 61.1 C-111.02 59.58 -105.94 57.21 -100.96 51.35 C-88.97 37.32 -70.91 28.4 -52.52 26.1 C-44.49 25.53 -36.66 24.98 -29.52 29.1 C-27.5 32 -26.71 34.24 -25.96 37.66 C-26.84 41.49 -29.43 42.88 -32.52 45.1 C-35.05 46.37 -37.34 46.29 -40.13 46.39 C-55.55 46.97 -70.27 50.45 -81.97 61.31 C-86.42 66.45 -89.84 72.33 -92.39 78.6 C-93.47 80.81 -94.1 81.89 -96.31 83.01 C-97.38 83.33 -97.38 83.33 -98.47 83.66 C-99.27 83.9 -100.08 84.14 -100.9 84.39 C-105.4 85.61 -109.92 86.69 -114.46 87.73 C-116.32 88.15 -118.18 88.58 -120.05 89.02 C-120.86 89.2 -121.67 89.39 -122.51 89.58 C-124.57 90.04 -124.57 90.04 -126.52 91.1 C-126.95 93.7 -127.27 96.23 -127.52 98.85 C-128.52 109.19 -128.52 109.19 -130.52 112.1 C-133.54 113.75 -136.72 114.84 -139.96 115.98 C-155.1 121.66 -167.41 129.02 -174.52 144.1 C-179.25 157 -180.27 167.35 -174.52 180.1 C-167.8 189.94 -158.58 196.18 -147.52 200.1 C-147.58 198.86 -147.64 197.61 -147.7 196.32 C-148.42 174.05 -141.69 154.75 -126.52 138.1 C-125.64 137.12 -124.75 136.15 -123.84 135.14 C-105.76 115.81 -78.8 103.91 -52.36 102.9 C-28.38 102.46 -3.24 109.03 14.48 126.1 C20.5 132.76 25.33 140.02 29.32 148.05 C30.31 150.25 30.31 150.25 32.48 151.1 C32.48 151.76 32.48 152.42 32.48 153.1 C33.31 152.47 34.13 151.84 34.98 151.2 C53.82 137.12 75.02 127.49 99.1 130.56 C114.89 133.35 130.49 139.58 140.26 152.86 C151.91 169.73 155.24 185.34 153.12 205.57 C150.24 220.14 138.55 233.9 126.68 242.39 C115.59 249.65 105.86 252.62 92.67 252.54 C91.57 252.56 90.47 252.58 89.34 252.6 C69.26 252.59 52.98 240.99 38.48 228.1 C53.51 255.17 78.48 280.68 108.73 289.73 C110.59 290.41 110.59 290.41 112.48 291.1 C113.28 293.12 113.28 293.12 113.48 295.1 C112.48 296.1 112.48 296.1 110.17 296.19 C94.01 295.4 79.49 288.77 65.48 281.1 C64.57 280.61 63.66 280.12 62.72 279.61 C42.67 268.18 29.94 252.35 18.75 232.57 C16.78 228.71 16.78 228.71 13.48 226.1 C13.1 226.55 12.73 227 12.34 227.46 C-0.08 241.97 -14.62 256.56 -34.52 259.1 C-56.4 260.51 -75.04 256.82 -92.3 242.33 C-104.4 230.16 -107.97 214.47 -107.95 197.97 C-107.65 182.02 -101.35 168 -90.46 156.35 C-76.14 142.73 -57.87 136.52 -38.33 136.9 C-33.81 137.14 -29.86 137.86 -25.52 139.1 C-35.81 132.24 -54.11 133.73 -65.82 135.72 C-84.41 140.15 -99.43 150.84 -109.52 167.1 C-118.46 183.53 -120.36 200.94 -116.52 219.1 C-116.19 220.09 -115.86 221.08 -115.52 222.1 C-115.06 228.49 -115.06 228.49 -116.77 230.79 C-122.49 235.07 -135.22 232.68 -141.93 231.77 C-159.15 228.61 -177.01 219.3 -189.52 207.1 C-190.08 206.57 -190.64 206.03 -191.22 205.48 C-198.96 197.31 -204.35 185.78 -207.52 175.1 C-207.74 174.37 -207.97 173.63 -208.2 172.88 C-212.43 156.91 -208.06 140.51 -200.51 126.29 C-197.4 121.31 -193.66 117.24 -189.52 113.1 C-188.69 112.17 -188.69 112.17 -187.85 111.21 C-179.92 102.48 -168.54 96.89 -157.52 93.1 C-156.86 93.1 -156.2 93.1 -155.52 93.1 C-155.54 92.49 -155.56 91.88 -155.58 91.25 C-155.69 85.09 -155.11 79.43 -153.83 73.41 C-153.65 72.54 -153.47 71.68 -153.28 70.78 C-149.16 51.8 -141.62 33.69 -128.52 19.1 C-128.03 18.49 -127.55 17.87 -127.04 17.23 C-113.64 0.39 -89.87 -10.98 -68.75 -13.69 C-44.86 -15.94 -21.01 -11.83 0 0 Z " fill="#00DDB4" transform="translate(299.51953125,100.8984375)"/>
<path d="M0 0 C2.15 1.79 4.1 3.53 6.06 5.5 C6.59 6.02 7.11 6.55 7.65 7.09 C16.03 15.84 18.37 25.51 18.29 37.32 C17.41 48.63 11.64 57.26 3.22 64.54 C-6.69 72.52 -16.72 72.87 -29 72 C-32.26 71.4 -33.99 70.61 -37 69 C-37.98 68.48 -37.98 68.48 -38.98 67.96 C-53.36 59.46 -65.4 44.63 -71 29 C-70.98 25.42 -70.21 24.25 -67.89 21.5 C-66.58 20.26 -66.58 20.26 -65.25 19 C-63.96 17.76 -63.96 17.76 -62.64 16.5 C-61.33 15.26 -61.33 15.26 -60 14 C-58.33 12.34 -56.66 10.67 -55 9 C-40.15 -5.78 -18.53 -10.7 0 0 Z " fill="#FAFDFF" transform="translate(412,259)"/>
<path d="M0 0 C9.18 7.88 16.53 17.47 23.07 27.59 C23.52 28.26 23.96 28.94 24.42 29.63 C26.19 32.46 27.4 34.49 27.33 37.87 C21.77 51.25 6.4 63.87 -6.62 69.59 C-15.83 72.63 -28.7 72.99 -37.75 69.18 C-41.37 67.18 -44.5 64.87 -47.62 62.15 C-48.79 61.16 -48.79 61.16 -49.98 60.15 C-58.33 52.52 -61.29 43.89 -61.84 32.69 C-61.18 22.16 -57.42 11.46 -49.62 4.15 C-35.73 -6.98 -15.34 -10.83 0 0 Z " fill="#FAFDFF" transform="translate(277.6171875,265.84765625)"/>
<path d="M0 0 C4.23 -0.07 8.46 -0.13 12.7 -0.16 C14.13 -0.18 15.57 -0.2 17 -0.23 C26.61 -0.4 35.5 -0.42 43.92 4.82 C46.34 7.35 47.74 9.78 49.25 12.94 C49.75 13.96 50.25 14.98 50.77 16.03 C54.21 24.33 53.85 33.22 51.05 41.67 C48.82 46.61 45.46 50.02 41 53 C41.89 53.5 42.77 53.99 43.69 54.5 C48.95 58.05 51.78 63.31 53.31 69.38 C55.01 78.78 54.99 89.08 49.44 97.19 C42.96 105.03 35.89 107.82 26 109 C21.81 109.23 17.64 109.24 13.44 109.19 C12.36 109.19 11.28 109.19 10.17 109.19 C2.28 109.14 2.28 109.14 0 108 C0 99.42 0 90.84 0 82 C3.87 80.06 8.64 80.52 12.91 80.28 C15.87 80.34 15.87 80.34 17 79 C17.23 77.49 17.41 75.96 17.56 74.44 C17.69 73.2 17.69 73.2 17.82 71.93 C17.88 71.3 17.94 70.66 18 70 C17.34 70 16.68 70 16 70 C16 69.34 16 68.68 16 68 C14.93 67.94 13.86 67.88 12.75 67.82 C11.36 67.73 9.96 67.65 8.56 67.56 C7.86 67.52 7.15 67.48 6.42 67.44 C1.11 67.11 1.11 67.11 0 66 C-0.1 64.16 -0.13 62.31 -0.13 60.47 C-0.13 59.35 -0.14 58.23 -0.14 57.07 C-0.13 55.89 -0.13 54.72 -0.12 53.5 C-0.13 52.32 -0.13 51.14 -0.14 49.93 C-0.14 48.81 -0.13 47.69 -0.13 46.53 C-0.13 45.5 -0.13 44.46 -0.13 43.39 C0 41 0 41 1 40 C3.14 39.79 5.29 39.63 7.44 39.5 C11.88 39.36 11.88 39.36 16 38 C16.04 36.72 16.08 35.44 16.12 34.12 C16.15 33.41 16.17 32.69 16.2 31.95 C16.18 29.76 16.18 29.76 14 28 C10.91 27.57 10.91 27.57 7.44 27.44 C1.1 27.1 1.1 27.1 0 26 C-0.09 24.07 -0.11 22.14 -0.1 20.21 C-0.09 19.05 -0.09 17.88 -0.09 16.67 C-0.08 15.44 -0.07 14.21 -0.06 12.94 C-0.06 11.7 -0.05 10.47 -0.05 9.19 C-0.04 6.13 -0.02 3.06 0 0 Z " fill="#00447B" transform="translate(594,180)"/>
<path d="M0 0 C31 0 31 0 33 1 C33.02 10.37 33.04 19.74 33.05 29.12 C33.06 33.47 33.06 37.82 33.08 42.18 C33.09 46.39 33.09 50.61 33.09 54.82 C33.1 56.41 33.1 58.01 33.11 59.6 C33.23 96.39 33.23 96.39 24.66 105.5 C13.31 115.74 -4.15 114.35 -18.44 113.62 C-35.55 112.72 -35.55 112.72 -39 111 C-39 103.41 -39 95.82 -39 88 C-27.65 82.33 -13.68 86.35 -1 86 C-0.67 57.62 -0.34 29.24 0 0 Z " fill="#00447B" transform="translate(1098,207)"/>
<path d="M0 0 C4.01 0.85 4.62 2.25 6.94 5.62 C8.54 8.69 9.93 11.83 11.31 15 C11.71 15.89 12.11 16.77 12.52 17.69 C14.32 21.7 16.02 25.68 17.33 29.89 C20.78 40.52 26.17 44.71 35.23 50.51 C39.98 53.61 43.97 57.38 47.51 61.79 C52.08 67.96 52.08 67.96 58.69 71.02 C61.32 70.5 63.5 69.75 65.94 68.62 C66.97 68.25 68 67.88 69.06 67.5 C69.68 67.21 70.3 66.92 70.94 66.62 C68 62.61 65.03 58.67 61.75 54.94 C57.43 49.9 55.31 46.44 55.6 39.65 C55.94 37.62 55.94 37.62 57.38 35.56 C62 33.87 66.44 33.59 71.05 35.5 C83.73 42.97 90.63 56.18 97.5 68.69 C97.85 69.31 98.19 69.93 98.55 70.56 C100.41 74.04 101.45 76.67 100.94 80.62 C99.06 82.51 95.65 82.08 93.12 82.31 C76.82 84.14 60.63 89.5 46.94 98.62 C43.89 95.79 41.8 92.96 39.69 89.38 C27.38 69.78 6.21 58.82 -15.69 53.73 C-22.4 52.12 -28.11 50.72 -32.06 44.62 C-30.63 40.49 -29.71 38.21 -26.44 35.25 C-17.47 30.93 -9.4 33.27 -0.06 35.62 C-0.55 34.52 -0.55 34.52 -1.05 33.39 C-9.4 14 -9.4 14 -8.06 5.62 C-5.59 2.21 -4.15 0.85 0 0 Z " fill="#00DDB4" transform="translate(292.0625,140.375)"/>
<path d="M0 0 C11.88 0 23.76 0 36 0 C36.02 13.77 36.04 27.54 36.05 41.31 C36.06 47.7 36.06 54.09 36.08 60.49 C36.09 66.65 36.09 72.82 36.09 78.98 C36.1 81.34 36.1 83.7 36.11 86.05 C36.11 89.34 36.11 92.64 36.11 95.93 C36.12 96.91 36.12 97.89 36.12 98.9 C36.12 99.8 36.12 100.69 36.12 101.62 C36.12 102.39 36.12 103.17 36.12 103.98 C36 106 36 106 35 109 C30.34 109.02 25.67 109.04 21.01 109.05 C19.42 109.06 17.84 109.07 16.25 109.08 C13.97 109.09 11.69 109.09 9.41 109.1 C8.35 109.11 8.35 109.11 7.26 109.11 C2.23 109.11 2.23 109.11 0 108 C0 72.36 0 36.72 0 0 Z " fill="#00447B" transform="translate(557,180)"/>
<path d="M0 0 C1.74 2.22 1.74 2.22 2.88 4.5 C3.26 5.25 3.65 6.01 4.05 6.78 C5.84 10.97 6.14 14.67 6.22 19.22 C6.24 20.48 6.27 21.74 6.29 23.03 C6.31 24.4 6.33 25.77 6.35 27.14 C6.37 28.54 6.4 29.95 6.42 31.35 C6.47 34.29 6.52 37.23 6.56 40.16 C6.61 43.94 6.68 47.71 6.74 51.48 C6.79 54.38 6.84 57.28 6.88 60.17 C6.9 61.57 6.93 62.96 6.95 64.35 C6.98 66.29 7.01 68.23 7.04 70.17 C7.05 71.27 7.07 72.38 7.09 73.51 C7 76 7 76 6 77 C3.71 77.09 1.41 77.11 -0.88 77.1 C-1.91 77.1 -1.91 77.1 -2.96 77.09 C-5.16 77.09 -7.36 77.08 -9.56 77.06 C-11.05 77.06 -12.54 77.05 -14.03 77.05 C-17.69 77.04 -21.34 77.02 -25 77 C-26.24 74.52 -26.15 72.81 -26.19 70.03 C-26.21 69 -26.22 67.96 -26.24 66.9 C-26.25 65.78 -26.27 64.65 -26.28 63.5 C-26.3 62.35 -26.32 61.21 -26.34 60.03 C-26.42 55.1 -26.48 50.18 -26.55 45.26 C-26.6 41.67 -26.66 38.09 -26.72 34.5 C-26.73 33.38 -26.75 32.26 -26.76 31.1 C-26.78 30.07 -26.79 29.03 -26.81 27.97 C-26.82 27.06 -26.84 26.14 -26.85 25.2 C-26.86 22.96 -26.86 22.96 -28 21 C-39.88 21 -51.76 21 -64 21 C-65.25 18.5 -65.11 16.79 -65.1 13.99 C-65.09 13.01 -65.09 12.02 -65.09 11 C-65.08 9.97 -65.07 8.94 -65.06 7.88 C-65.06 6.83 -65.05 5.79 -65.05 4.72 C-65.04 2.15 -65.02 -0.43 -65 -3 C-59.89 -4.97 -55.03 -5.62 -49.62 -6.12 C-48.74 -6.21 -47.86 -6.29 -46.95 -6.38 C-31.47 -7.73 -13.46 -9.09 0 0 Z " fill="#00447B" transform="translate(788,212)"/>
<path d="M0 0 C5.67 5.97 7.27 12.76 7.62 20.84 C7.65 21.61 7.69 22.38 7.73 23.18 C8.15 32.91 8.15 42.65 8.13 52.38 C8.12 55.62 8.13 58.85 8.14 62.08 C8.14 64.14 8.13 66.2 8.13 68.25 C8.13 69.22 8.14 70.19 8.14 71.18 C8.13 72.51 8.13 72.51 8.13 73.86 C8.13 74.64 8.13 75.41 8.13 76.22 C8 78 8 78 7 79 C4.71 79.09 2.41 79.11 0.12 79.1 C-0.91 79.1 -0.91 79.1 -1.96 79.09 C-4.16 79.09 -6.36 79.08 -8.56 79.06 C-10.05 79.06 -11.54 79.05 -13.03 79.05 C-16.69 79.04 -20.34 79.02 -24 79 C-25.24 76.51 -25.16 74.78 -25.21 72 C-25.23 70.96 -25.25 69.92 -25.27 68.85 C-25.28 67.72 -25.3 66.59 -25.32 65.43 C-25.34 64.28 -25.36 63.13 -25.38 61.94 C-25.44 58.25 -25.5 54.56 -25.56 50.88 C-25.61 48.38 -25.65 45.88 -25.69 43.39 C-25.8 37.26 -25.9 31.13 -26 25 C-27.11 24.88 -28.23 24.75 -29.38 24.62 C-33 24 -33 24 -35 22 C-35.23 19.85 -35.23 19.85 -35.2 17.21 C-35.19 16.27 -35.18 15.33 -35.18 14.36 C-35.16 13.37 -35.14 12.39 -35.12 11.38 C-35.12 10.38 -35.11 9.39 -35.1 8.37 C-35.07 5.91 -35.04 3.46 -35 1 C-33.44 0.18 -31.88 -0.63 -30.31 -1.44 C-29.44 -1.89 -28.57 -2.34 -27.68 -2.81 C-19.1 -6.63 -7.54 -5.81 0 0 Z " fill="#00447B" transform="translate(922,210)"/>
<path d="M0 0 C4.4 -0.02 8.79 -0.04 13.19 -0.05 C14.69 -0.06 16.18 -0.07 17.68 -0.08 C19.83 -0.09 21.97 -0.09 24.12 -0.1 C26.06 -0.11 26.06 -0.11 28.04 -0.11 C31 0 31 0 32 1 C32.12 2.45 32.17 3.91 32.19 5.36 C32.21 6.29 32.22 7.22 32.24 8.18 C32.25 9.19 32.27 10.2 32.28 11.24 C32.31 12.79 32.31 12.79 32.34 14.37 C32.4 17.68 32.45 21 32.5 24.31 C32.57 28.66 32.64 33.01 32.72 37.36 C32.73 38.37 32.75 39.37 32.76 40.41 C32.78 41.34 32.79 42.28 32.81 43.25 C32.82 44.07 32.84 44.89 32.85 45.74 C33 47.94 33.39 49.88 34 52 C35.11 52.14 36.23 52.29 37.38 52.44 C41 53 41 53 43 54 C43 61.59 43 69.18 43 77 C40.53 77.99 40.53 77.99 38 79 C37.24 79.36 36.48 79.72 35.7 80.1 C28.02 82.67 17.51 82.29 10.19 78.81 C3.9 75 1.74 71.08 0 64 C-0.24 60.73 -0.24 60.73 -0.23 57.33 C-0.23 56.05 -0.23 54.77 -0.23 53.45 C-0.22 52.07 -0.21 50.69 -0.2 49.32 C-0.19 47.89 -0.19 46.47 -0.19 45.04 C-0.18 41.31 -0.16 37.58 -0.14 33.85 C-0.12 30.04 -0.11 26.22 -0.1 22.41 C-0.08 14.94 -0.04 7.47 0 0 Z " fill="#00447B" transform="translate(1054,207)"/>
<path d="M0 0 C4.38 -0.02 8.76 -0.04 13.13 -0.05 C14.62 -0.06 16.11 -0.07 17.6 -0.08 C19.74 -0.09 21.88 -0.09 24.02 -0.1 C25.31 -0.1 26.6 -0.11 27.93 -0.11 C31 0 31 0 33 1 C34.44 4.69 34.09 8.63 34.02 12.52 C34.01 13.27 34 14.03 33.99 14.8 C33.96 17.28 33.92 19.76 33.88 22.23 C33.85 23.96 33.83 25.68 33.81 27.4 C33.74 31.92 33.68 36.44 33.61 40.97 C33.53 45.59 33.47 50.21 33.4 54.82 C33.28 63.88 33.14 72.94 33 82 C28.62 82.05 24.24 82.09 19.87 82.11 C18.38 82.12 16.89 82.13 15.4 82.15 C13.26 82.18 11.12 82.19 8.98 82.2 C7.69 82.21 6.4 82.22 5.07 82.23 C2 82 2 82 0 80 C-0.19 77.44 -0.25 74.99 -0.23 72.43 C-0.23 71.26 -0.23 71.26 -0.23 70.06 C-0.23 67.48 -0.21 64.89 -0.2 62.3 C-0.19 60.51 -0.19 58.72 -0.19 56.93 C-0.18 52.21 -0.16 47.5 -0.14 42.78 C-0.12 37.97 -0.11 33.15 -0.1 28.34 C-0.08 18.89 -0.04 9.45 0 0 Z " fill="#00447B" transform="translate(658,207)"/>
<path d="M0 0 C31 0 31 0 33 1 C33.02 11.41 33.04 21.83 33.05 32.24 C33.06 37.08 33.06 41.91 33.08 46.74 C33.09 51.41 33.09 56.07 33.09 60.73 C33.1 62.51 33.1 64.3 33.11 66.08 C33.11 68.57 33.11 71.05 33.11 73.54 C33.12 74.29 33.12 75.03 33.12 75.8 C33.11 80.89 33.11 80.89 32 82 C29.81 82.1 27.61 82.13 25.41 82.13 C24.75 82.13 24.09 82.13 23.41 82.14 C22.01 82.14 20.62 82.13 19.22 82.13 C17.07 82.13 14.93 82.13 12.79 82.14 C11.43 82.14 10.08 82.13 8.72 82.13 C7.48 82.13 6.24 82.13 4.97 82.13 C2 82 2 82 0 81 C0 54.27 0 27.54 0 0 Z " fill="#00447B" transform="translate(807,207)"/>
<path d="M0 0 C4.4 -0.02 8.79 -0.04 13.19 -0.05 C14.69 -0.06 16.18 -0.07 17.68 -0.08 C19.83 -0.09 21.97 -0.09 24.12 -0.1 C26.06 -0.11 26.06 -0.11 28.04 -0.11 C31 0 31 0 32 1 C32.39 4.2 32.45 7.44 32.59 10.66 C32.63 11.68 32.68 12.69 32.72 13.74 C33.21 27.31 32.86 40.87 32.56 54.44 C32.51 57.13 32.46 59.82 32.4 62.51 C32.28 69 32.14 75.5 32 82 C21.77 82 11.54 82 1 82 C1 81.34 1 80.68 1 80 C0.34 79.67 -0.32 79.34 -1 79 C-1.02 69.44 -1.04 59.88 -1.05 50.31 C-1.06 45.87 -1.06 41.43 -1.08 36.99 C-1.09 32.71 -1.09 28.42 -1.09 24.14 C-1.1 22.5 -1.1 20.87 -1.11 19.23 C-1.11 16.94 -1.11 14.65 -1.11 12.36 C-1.12 11.06 -1.12 9.75 -1.12 8.41 C-1.02 5.46 -0.69 2.86 0 0 Z " fill="#00447B" transform="translate(853,207)"/>
<path d="M0 0 C4.4 -0.02 8.79 -0.04 13.19 -0.05 C14.69 -0.06 16.18 -0.07 17.68 -0.08 C19.83 -0.09 21.97 -0.09 24.12 -0.1 C26.06 -0.11 26.06 -0.11 28.04 -0.11 C31 0 31 0 32 1 C32.1 3.53 32.13 6.02 32.11 8.55 C32.11 9.34 32.11 10.13 32.11 10.94 C32.11 13.57 32.11 16.19 32.1 18.82 C32.1 20.63 32.09 22.45 32.09 24.26 C32.09 29.05 32.08 33.83 32.07 38.62 C32.06 43.5 32.05 48.38 32.05 53.26 C32.04 62.84 32.02 72.42 32 82 C21.77 82 11.54 82 1 82 C-0.53 78.95 -0.13 75.77 -0.11 72.43 C-0.11 71.65 -0.11 70.87 -0.11 70.06 C-0.11 67.48 -0.11 64.89 -0.1 62.3 C-0.1 60.51 -0.09 58.72 -0.09 56.93 C-0.09 52.21 -0.08 47.5 -0.07 42.78 C-0.06 37.97 -0.05 33.15 -0.05 28.34 C-0.04 18.89 -0.02 9.45 0 0 Z " fill="#00447B" transform="translate(943,207)"/>
<path d="M0 0 C1.3 0 2.6 0.01 3.95 0.01 C5.33 0.02 6.71 0.03 8.09 0.04 C9.47 0.04 10.86 0.04 12.25 0.05 C15.65 0.06 19.06 0.08 22.46 0.1 C22.46 0.76 22.46 1.42 22.46 2.1 C23.12 2.43 23.78 2.76 24.46 3.1 C24.46 3.67 24.45 4.24 24.45 4.83 C24.42 7.4 24.41 9.97 24.4 12.54 C24.39 13.88 24.39 13.88 24.37 15.26 C24.37 16.11 24.37 16.96 24.36 17.84 C24.36 18.63 24.35 19.43 24.35 20.24 C24.26 22.11 24.26 22.11 25.46 23.1 C27.77 23.31 30.08 23.47 32.4 23.6 C39.24 23.99 39.24 23.99 41.46 25.1 C41.49 29.08 41.51 33.06 41.52 37.04 C41.53 38.17 41.54 39.31 41.55 40.48 C41.55 41.56 41.56 42.64 41.56 43.75 C41.56 44.75 41.57 45.75 41.57 46.78 C41.46 49.1 41.46 49.1 40.46 50.1 C37.91 50.15 35.38 50.14 32.84 50.1 C22.4 50 12 50.38 1.58 50.83 C-14.38 51.44 -14.38 51.44 -21.54 50.1 C-23.54 48.1 -23.54 48.1 -23.77 45.67 C-23.76 44.67 -23.75 43.68 -23.73 42.65 C-23.73 41.58 -23.72 40.5 -23.71 39.39 C-23.7 38.26 -23.68 37.13 -23.66 35.97 C-23.66 34.84 -23.65 33.7 -23.64 32.53 C-23.61 29.72 -23.58 26.91 -23.54 24.1 C-18.92 23.77 -14.3 23.44 -9.54 23.1 C-9.21 15.84 -8.88 8.58 -8.54 1.1 C-5.67 -0.34 -3.2 -0.01 0 0 Z " fill="#00447B" transform="translate(1005.5390625,182.90234375)"/>
<path d="M0 0 C0 5.94 0 11.88 0 18 C-3.3 18 -6.6 18 -10 18 C-10.33 20.31 -10.66 22.62 -11 25 C-6.54 25.99 -6.54 25.99 -2 27 C-2 27.66 -2 28.32 -2 29 C-1.34 29 -0.68 29 0 29 C0 34.94 0 40.88 0 47 C-9.21 50.68 -19.15 53.3 -28.92 50.02 C-34.13 47.52 -38.66 45.03 -41.07 39.58 C-42.37 34.57 -42.37 29.78 -42.38 24.62 C-42.41 23.12 -42.41 23.12 -42.45 21.59 C-42.47 15.18 -41.7 10.33 -38 5 C-29.13 -3.87 -11.35 -3.78 0 0 Z " fill="#00447B" transform="translate(761,239)"/>
<path d="M0 0 C0.66 -0 1.32 -0 2.01 -0 C3.41 -0 4.81 -0 6.21 0 C8.37 0.01 10.52 0 12.67 -0 C14.03 -0 15.39 -0 16.75 0 C18.62 0 18.62 0 20.52 0 C23.38 0.13 23.38 0.13 24.38 1.13 C24.5 2.78 24.56 4.44 24.6 6.1 C24.62 7.15 24.64 8.21 24.67 9.3 C24.69 10.45 24.71 11.6 24.73 12.79 C24.75 13.96 24.77 15.13 24.8 16.34 C24.84 18.83 24.89 21.31 24.93 23.8 C25 27.62 25.08 31.44 25.16 35.25 C25.2 37.66 25.25 40.07 25.29 42.48 C25.31 43.63 25.34 44.78 25.36 45.96 C25.38 47.02 25.4 48.08 25.41 49.17 C25.43 50.11 25.45 51.04 25.46 52.01 C25.38 54.13 25.38 54.13 24.38 55.13 C22.08 55.22 19.79 55.24 17.5 55.23 C16.47 55.23 16.47 55.23 15.42 55.23 C13.21 55.22 11.01 55.21 8.81 55.2 C7.32 55.19 5.83 55.19 4.35 55.18 C0.69 55.17 -2.97 55.15 -6.62 55.13 C-7.87 52.63 -7.75 50.94 -7.75 48.15 C-7.76 47.11 -7.76 46.07 -7.76 45 C-7.76 43.88 -7.76 42.76 -7.76 41.6 C-7.76 40.45 -7.76 39.3 -7.76 38.12 C-7.76 35.68 -7.76 33.25 -7.76 30.82 C-7.75 27.08 -7.76 23.35 -7.76 19.61 C-7.76 17.25 -7.76 14.89 -7.76 12.54 C-7.76 11.41 -7.76 10.28 -7.76 9.12 C-7.76 8.09 -7.76 7.05 -7.75 5.99 C-7.75 5.07 -7.75 4.16 -7.75 3.21 C-7.47 -1.33 -3.76 0 0 0 Z " fill="#00447B" transform="translate(1004.625,233.8671875)"/>
<path d="M0 0 C13.58 3.64 23.96 11.45 31.18 23.53 C36.91 33.61 41.53 44.13 40 56 C38.97 59.56 37.66 62.34 35 65 C28.91 64.46 28.91 64.46 26 63 C25.99 61.7 25.97 60.39 25.96 59.05 C25.6 42.98 22.89 32.49 11 21 C10.44 20.45 9.88 19.9 9.3 19.34 C3.82 14.4 -2.37 13.68 -9.41 12.66 C-12.23 11.94 -13.82 10.88 -16 9 C-15.69 5.62 -15.69 5.62 -15 2 C-10.25 -1.17 -5.56 -0.62 0 0 Z " fill="#00DDB4" transform="translate(408,177)"/>
<path d="M0 0 C1.05 0 1.05 0 2.13 0 C4.27 -0 6.41 -0.02 8.55 -0.04 C9.91 -0.04 11.27 -0.04 12.62 -0.04 C13.86 -0.05 15.1 -0.05 16.38 -0.06 C19.35 0.19 19.35 0.19 21.35 2.19 C21.57 4.62 21.57 4.62 21.54 7.63 C21.53 8.71 21.53 9.78 21.52 10.89 C21.5 12.02 21.49 13.15 21.47 14.31 C21.46 15.45 21.45 16.58 21.44 17.75 C21.42 20.56 21.39 23.37 21.35 26.19 C16.81 26.21 12.27 26.23 7.73 26.24 C6.18 26.25 4.64 26.25 3.09 26.26 C0.88 26.27 -1.34 26.28 -3.56 26.28 C-4.6 26.29 -4.6 26.29 -5.66 26.3 C-7.33 26.3 -8.99 26.25 -10.65 26.19 C-12.37 24.47 -11.78 22.21 -11.79 19.87 C-11.79 18.8 -11.79 17.72 -11.79 16.62 C-11.79 14.92 -11.79 14.92 -11.78 13.19 C-11.78 12.05 -11.79 10.92 -11.79 9.76 C-11.79 8.68 -11.79 7.61 -11.79 6.5 C-11.79 5.5 -11.78 4.51 -11.78 3.49 C-11.47 -2.11 -4.34 0.02 0 0 Z " fill="#00447B" transform="translate(818.654296875,170.814453125)"/>
<path d="M0 0 C4.4 -0.02 8.79 -0.04 13.19 -0.05 C14.69 -0.06 16.18 -0.07 17.68 -0.08 C19.83 -0.09 21.97 -0.09 24.12 -0.1 C26.06 -0.11 26.06 -0.11 28.04 -0.11 C31 0 31 0 32 1 C32.16 2.85 32.25 4.71 32.32 6.57 C32.36 7.69 32.4 8.82 32.44 9.97 C32.48 11.16 32.52 12.34 32.56 13.56 C32.61 14.75 32.65 15.94 32.69 17.16 C32.8 20.11 32.9 23.05 33 26 C28.46 26.02 23.92 26.04 19.38 26.05 C17.84 26.06 16.29 26.07 14.75 26.08 C12.53 26.09 10.31 26.09 8.1 26.1 C7.06 26.11 7.06 26.11 5.99 26.11 C4.33 26.11 2.66 26.06 1 26 C0 25 0 25 -0.11 22.59 C-0.11 21.55 -0.1 20.51 -0.1 19.43 C-0.09 18.31 -0.09 17.18 -0.09 16.03 C-0.08 14.84 -0.07 13.66 -0.06 12.44 C-0.06 11.25 -0.05 10.06 -0.05 8.84 C-0.04 5.89 -0.02 2.95 0 0 Z " fill="#00447B" transform="translate(943,171)"/>
<path d="M0 0 C2 2 2 2 2.23 4.8 C2.22 5.96 2.21 7.12 2.2 8.32 C2.19 9.58 2.18 10.83 2.18 12.13 C2.16 13.45 2.14 14.77 2.12 16.12 C2.11 17.46 2.11 18.8 2.1 20.14 C2.07 23.43 2.04 26.71 2 30 C1.11 30.13 0.22 30.25 -0.7 30.38 C-1.87 30.55 -3.03 30.73 -4.24 30.9 C-5.4 31.07 -6.55 31.24 -7.75 31.41 C-11.6 32.11 -14.53 33.23 -18 35 C-18.99 35.5 -18.99 35.5 -20 36 C-22.23 31.54 -21.32 25.52 -21.38 20.62 C-21.41 19.38 -21.45 18.13 -21.49 16.85 C-21.5 15.66 -21.51 14.46 -21.52 13.23 C-21.54 12.13 -21.56 11.03 -21.58 9.9 C-21 7 -21 7 -18.62 4.69 C-12.96 1.04 -6.76 -0.56 0 0 Z " fill="#00447B" transform="translate(714,205)"/>
<path d="M0 0 C2.61 0.09 5.21 0.19 7.81 0.31 C8.55 0.34 9.29 0.36 10.05 0.38 C15.51 0.65 15.51 0.65 17.99 2.42 C19.99 5.54 19.34 8.39 19 12 C16 14 16 14 3 15 C2.67 23.91 2.34 32.82 2 42 C0 40 0 40 -0.23 36.1 C-0.23 34.42 -0.22 32.74 -0.2 31.05 C-0.19 30.17 -0.19 29.28 -0.19 28.37 C-0.18 25.54 -0.15 22.71 -0.12 19.88 C-0.11 17.96 -0.11 16.04 -0.1 14.12 C-0.08 9.41 -0.04 4.71 0 0 Z " fill="#EEF4F9" transform="translate(592,206)"/>
<path d="M0 0 C1.25 2.51 1.12 4.2 1.11 7 C1.11 8.04 1.11 9.08 1.11 10.15 C1.11 11.28 1.1 12.41 1.1 13.57 C1.1 14.72 1.09 15.87 1.09 17.06 C1.09 20.75 1.08 24.44 1.06 28.12 C1.06 30.62 1.05 33.12 1.05 35.61 C1.04 41.74 1.02 47.87 1 54 C0.34 54 -0.32 54 -1 54 C-1.33 37.17 -1.66 20.34 -2 3 C-12.23 3 -22.46 3 -33 3 C-33 2.34 -33 1.68 -33 1 C-28.78 0.86 -24.56 0.71 -20.35 0.57 C-18.91 0.52 -17.48 0.48 -16.04 0.43 C-13.98 0.36 -11.92 0.29 -9.86 0.22 C-7.99 0.16 -7.99 0.16 -6.09 0.09 C-4.06 0.03 -2.03 0 0 0 Z " fill="#DDE8EF" transform="translate(1030,232)"/>
</svg>
